# xmcd
#
# Track frame offsets: 
#        150
#        18862
#        42975
#        62175
#        77251
#        99489
#        126040
#        151932
#        173065
#        198792
#
# Disc length: 2919 seconds
#
# Revision: 3
# Processed by: cddbd v1.5.2PL0 Copyright (c) Steve Scherf et al.
# Submitted via: ExactAudioCopy v1.3
#
DISCID=6d0b650a
DTITLE=AVSS - ELECTROXXX
DYEAR=2007
DGENRE=Techno
TTITLE0=橋本鏡也 feat. 楽乃由重 - freewill
TTITLE1=HIR feat. 野宮あゆみ - Shangri-La (Violent Eruption Mix)
TTITLE2=Dee! feat. 紫季伊冬那 - Crack the sky
TTITLE3=橋本鏡也 feat. 佳織みちる - LOW
TTITLE4=JiNG*da*LaW&囁一 feat. 中恵光城&JiNG*da*LaW - 大妄想時代
TTITLE5=Alabaster - 大妄想時代 (DMS Hard Remix)
TTITLE6=Dee! feat. 野宮あゆみ - Shangri-La (Original Mix)
TTITLE7=M-Project - Crack The Sky (M-Project Remix)
TTITLE8=Groovetune - freewill (Groovetune Remix)
TTITLE9=Atsushi Ohara - LOW (Atsushi Ohara Remix)
EXTD=YEAR: 2007
EXTT0=
EXTT1=
EXTT2=
EXTT3=
EXTT4=
EXTT5=
EXTT6=
EXTT7=
EXTT8=
EXTT9=
PLAYORDER=
